<svg width="119" height="35" viewBox="0 0 119 35" fill="none" xmlns="http://www.w3.org/2000/svg">
<path d="M0 5.39633C0 2.71212 2.1612 0.544922 4.84297 0.544922C7.52473 0.544922 9.68995 2.71212 9.68995 5.39633C9.68995 8.08055 7.52875 10.2933 4.84297 10.2933C2.15719 10.2933 0 8.08055 0 5.39633Z" fill="black"/>
<path d="M38.5357 10.2698H30.8196V33.5371H20.2291V10.2698H12.5625V0.568359H38.5357V10.2698Z" fill="black"/>
<path d="M62.5509 21.2916L71.3054 27.0819C68.2436 31.415 63.1183 34.146 57.095 34.146C47.2137 34.146 39.7305 26.802 39.7305 17.0496C39.7305 7.29721 47.2137 0 57.095 0C63.1183 0 68.245 2.73377 71.3054 7.01727L62.5509 12.8116C61.3291 11.2083 59.4008 10.2694 57.095 10.2694C53.1875 10.2694 50.317 13.0956 50.317 17.0496C50.317 21.0036 53.1861 23.8338 57.095 23.8338C59.4021 23.8338 61.3291 22.8908 62.5509 21.2916Z" fill="black"/>
<path d="M104.263 0.568359V33.5371H93.7221V21.667H84.2623V33.5371H73.6758V0.568359H84.2623V12.1075H93.7221V0.568359H104.263Z" fill="black"/>
<path d="M9.69673 13.0713H0.382812V33.6717H9.69673V13.0713Z" fill="black"/>
<path d="M119.002 28.8218C119.002 31.506 116.841 33.6732 114.159 33.6732C111.478 33.6732 109.312 31.506 109.312 28.8218C109.312 26.1375 111.474 23.9248 114.159 23.9248C116.845 23.9248 119.002 26.1375 119.002 28.8218Z" fill="black"/>
<path d="M118.607 0.544922H109.293V21.1453H118.607V0.544922Z" fill="black"/>
</svg>
